<?xml version="1.0" encoding="UTF-8" standalone="no"?>
<svg
   xmlns:dc="http://purl.org/dc/elements/1.1/"
   xmlns:cc="http://creativecommons.org/ns#"
   xmlns:rdf="http://www.w3.org/1999/02/22-rdf-syntax-ns#"
   xmlns:svg="http://www.w3.org/2000/svg"
   xmlns="http://www.w3.org/2000/svg"
   xmlns:sodipodi="http://sodipodi.sourceforge.net/DTD/sodipodi-0.dtd"
   xmlns:inkscape="http://www.inkscape.org/namespaces/inkscape"
   width="141.42136mm"
   height="141.42136mm"
   viewBox="0 0 141.42136 141.42136"
   version="1.1"
   id="svg8"
   inkscape:version="1.0.2 (e86c870879, 2021-01-15, custom)"
   sodipodi:docname="ChunTei_Black_Chun_Route_Nagayama_Kai.svg">
  <defs
     id="defs2" />
  <sodipodi:namedview
     id="base"
     pagecolor="#ffffff"
     bordercolor="#666666"
     borderopacity="1.0"
     inkscape:pageopacity="0.0"
     inkscape:pageshadow="2"
     inkscape:zoom="0.7"
     inkscape:cx="284.61065"
     inkscape:cy="322.6799"
     inkscape:document-units="mm"
     inkscape:current-layer="layer1"
     inkscape:document-rotation="0"
     showgrid="false"
     fit-margin-top="0"
     fit-margin-left="0"
     fit-margin-right="0"
     fit-margin-bottom="0"
     inkscape:window-width="1600"
     inkscape:window-height="837"
     inkscape:window-x="-8"
     inkscape:window-y="-8"
     inkscape:window-maximized="1" />
  <metadata
     id="metadata5">
    <rdf:RDF>
      <cc:Work
         rdf:about="">
        <dc:format>image/svg+xml</dc:format>
        <dc:type
           rdf:resource="http://purl.org/dc/dcmitype/StillImage" />
        <dc:title></dc:title>
      </cc:Work>
    </rdf:RDF>
  </metadata>
  <g
     inkscape:label="Layer 1"
     inkscape:groupmode="layer"
     id="layer1"
     transform="translate(-1.9678917,-54.884557)">
    <rect
       style="fill:#ff0000;stroke-width:0;stroke-opacity:0.501961"
       id="rect10"
       width="100"
       height="100"
       x="90.200752"
       y="-12.582267"
       transform="rotate(45)" />
    <g
       aria-label="春"
       id="text14"
       style="font-style:normal;font-weight:normal;font-size:81.0101px;line-height:1.25;font-family:sans-serif;letter-spacing:0px;word-spacing:0px;fill:#000000;fill-opacity:1;stroke:none;stroke-width:1.5;stroke-miterlimit:4;stroke-dasharray:none"
       transform="translate(3.2844497,6.054475)">
      <path
         d="m 76.448387,154.92405 1.458182,-0.081 c 0.16202,-0.081 0.32404,-0.24303 0.40505,-0.40505 0.162021,-0.24303 0.243031,-0.32404 0.405051,-0.56707 0.08101,-0.16202 0.32404,-0.32404 0.48606,-0.40505 0.324041,-0.56707 0.567071,-1.29616 0.648081,-2.10626 0,-0.8101 0,-1.5392 0,-2.26829 0.08101,-0.72909 0.162021,-1.53919 0.243031,-2.26828 l -0.08101,-0.97212 0.08101,-3.88849 v -5.26565 l 0.16202,-0.72909 c -0.08101,-0.32404 -0.16202,-0.72909 -0.405051,-1.05313 -0.08101,-0.24303 -0.32404,-0.64808 -0.48606,-0.97213 -0.243031,-0.32404 -0.486061,-0.56707 -0.729091,-0.89111 h -0.08101 l -0.08101,-0.16202 v -0.081 c -0.243031,-0.24303 -0.567071,-0.48606 -0.810101,-0.72909 -0.324041,-0.24303 -0.567071,-0.40505 -0.891112,-0.64808 -0.24303,-0.24303 -0.48606,-0.48606 -0.72909,-0.8101 L 75.557276,130.297 c -0.24303,-0.24303 -0.405051,-0.32404 -0.567071,-0.48606 -0.24303,-0.16202 -0.40505,-0.24303 -0.56707,-0.48606 -0.243031,-0.081 -0.486061,-0.24303 -0.729091,-0.32404 -1.134142,0.32404 -2.187273,0.8101 -3.240404,1.29616 -1.134142,0.40505 -2.187273,0.89111 -3.240404,1.37717 -1.053132,0.40505 -2.106263,1.13414 -3.078384,1.70121 v 0.16202 l -0.405051,0.16202 v 0.081 l -0.40505,0.16202 v 0.24304 l 0.16202,0.081 0.567071,-0.24303 1.539191,0.32404 c 0.810101,0 1.620203,-0.081 2.349293,-0.40506 0.810101,-0.24303 1.458182,-0.56707 2.268283,-0.8101 0.729091,-0.24303 1.539192,-0.40505 2.268283,-0.48606 h 0.24303 l 0.08101,0.16202 0.162021,0.081 c 0.16202,0.48606 0.32404,0.8101 0.56707,1.29617 0.162021,0.48606 0.162021,0.89111 0.243031,1.45818 0,0.48606 0,0.89111 0.08101,1.45818 l -0.08101,3.56444 c 0,0.32404 0.08101,0.56707 0.08101,0.89111 0,0.32404 0,0.7291 0.08101,1.05314 0,0.24303 0,0.56707 0.08101,0.89111 0,0.56707 0,1.05313 0,1.6202 -0.08101,0.56707 -0.08101,1.13414 -0.08101,1.70121 -0.08101,0.48606 -0.16202,1.05313 -0.16202,1.70121 h -0.243031 l -0.32404,-0.72909 c 0,-0.24303 -0.16202,-0.32404 -0.405051,-0.40505 -0.16202,-0.081 -0.32404,-0.081 -0.48606,-0.16202 -0.16202,0 -0.405051,0 -0.567071,0 -1.134141,-0.16202 -2.106262,0 -2.997374,0.24303 -0.972121,0.32404 -1.863232,0.64808 -2.754343,0.89111 -0.972121,0.32404 -1.863232,0.56707 -2.835354,0.8101 l -0.24303,-0.081 -0.24303,-1.6202 v -4.8606 l 3.078384,0.72909 c 0.891111,0.081 1.782222,-0.081 2.673333,-0.40505 0.729091,-0.32404 1.620202,-0.48606 2.511313,-0.72909 0.891111,-0.24304 1.620202,-0.56708 2.511313,-0.97213 l 0.162021,-0.56707 -0.324041,-0.56707 -0.40505,-0.32404 -0.08101,-0.081 -0.32404,-0.72909 c -0.08101,-0.081 -0.08101,-0.16202 -0.08101,-0.16202 -0.08101,-0.081 -0.16202,-0.16202 -0.24303,-0.16202 0,0 0,0 -0.08101,-0.081 -0.486061,0 -0.972122,0 -1.458182,-0.081 -0.405051,0 -0.891111,0 -1.296162,0.081 -0.40505,0.081 -0.891111,0.24303 -1.215151,0.56707 v 0.16202 c -0.567071,0.24303 -0.972122,0.56707 -1.620202,0.72909 -0.486061,0.32404 -1.053132,0.56707 -1.620202,0.8101 -0.486061,0.24303 -1.053132,0.48606 -1.620202,0.8101 l -0.162021,0.24303 H 62.9197 c -0.08101,-0.8101 -0.16202,-1.70121 -0.24303,-2.4303 -0.16202,-0.89111 -0.324041,-1.6202 -0.567071,-2.34929 -0.32404,-0.72909 -0.648081,-1.45818 -1.053131,-2.18727 h -0.16202 v -0.16202 c -0.243031,-0.081 -0.405051,-0.16202 -0.567071,-0.40505 -0.16202,-0.081 -0.324041,-0.24303 -0.486061,-0.40506 -0.08101,-0.24303 -0.24303,-0.32404 -0.32404,-0.56707 0.32404,-0.72909 0.648081,-1.53919 1.053131,-2.26828 0.405051,-0.8101 0.810101,-1.53919 1.215152,-2.34929 0.48606,-0.72909 0.891111,-1.45818 1.134141,-2.26828 l 0.24303,-0.16202 0.243031,-0.24303 c 0.24303,-0.40506 0.48606,-0.89112 0.729091,-1.37718 0.24303,-0.48606 0.32404,-0.8101 0.48606,-1.37717 0.243031,-0.40505 0.405051,-0.89111 0.648081,-1.29616 l 0.32404,-0.32404 0.243031,-0.16202 0.32404,-0.40505 0.08101,-0.081 c 0.486061,-0.40505 0.972122,-0.64808 1.539192,-0.8101 0.567071,-0.081 1.134142,-0.16202 1.620202,-0.24303 0.648081,-0.081 1.215152,-0.16202 1.701212,-0.16202 0.162021,-0.081 0.243031,-0.081 0.405051,0 0.08101,0 0.16202,0.16202 0.24303,0.24303 0.08101,0.081 0.16202,0.081 0.324041,0.16202 l 3.078383,4.69858 h 0.08101 l 0.56707,0.97212 h 0.16202 c 0.567071,0.97213 1.134142,1.78223 1.701213,2.75435 0.56707,0.97212 1.134141,1.86323 1.701212,2.83535 0.48606,0.89111 1.053131,1.78222 1.782222,2.59233 h 0.16202 l 0.08101,0.24303 0.486061,0.72909 0.08101,0.081 0.08101,0.16202 0.810101,0.97212 h 0.08101 v 0.081 h 0.08101 v 0.081 h 0.16202 l 0.324041,0.48606 h 0.08101 l 0.972121,1.45818 h 0.16202 l 0.405051,0.72909 h 0.08101 v 0.081 h 0.16202 v 0.16202 l 0.243031,0.081 v 0.081 h 0.16202 v 0.081 l 0.08101,0.081 0.567071,1.29616 h 0.08101 v 0.081 l 0.48606,0.48606 0.16202,0.16202 h 0.162021 v 0.16202 l 0.24303,0.24304 0.32404,0.16202 v 0.16202 h 0.08101 v 0.16202 l 0.972122,0.8101 0.891111,1.21515 0.40505,0.40505 0.324041,0.24303 v 0.16202 h 0.08101 v 0.081 l 0.48606,0.16202 v 0.16202 c 1.053132,0.64808 2.268283,1.13414 3.402425,1.29616 1.134141,0.081 2.268282,0.40505 3.564444,0.8101 1.134142,0.48606 2.187277,0.8101 3.402427,1.13414 0.89111,-0.081 1.70121,-0.16202 2.67333,-0.16202 0.89111,0 1.86323,-0.081 2.59232,-0.24303 0.81011,-0.16202 1.62021,-0.56707 2.3493,-1.13414 l 0.40505,-0.89111 c 0,-0.24303 0,-0.32404 -0.081,-0.56707 0,-0.081 -0.081,-0.24303 -0.081,-0.40505 0,-0.16202 -0.081,-0.24303 -0.16202,-0.40505 v -0.16202 l 0.40505,0.16202 h 0.081 v -0.16202 h -0.16202 l -0.16202,-0.40505 c -2.10626,-1.29616 -4.37455,-2.4303 -6.56182,-3.64546 -2.34929,-1.21515 -4.536567,-2.34929 -6.723839,-3.56444 -2.268283,-1.13414 -4.374546,-2.59232 -6.480809,-3.9695 v -0.16202 h -0.16202 l -0.32404,-0.32404 h -0.08101 v -0.16202 h -0.08101 v -0.081 l -0.567071,-0.56707 -0.32404,-0.40505 -0.567071,-0.56707 -0.16202,-0.16202 -0.567071,-0.56707 -3.807475,-4.37454 -0.24303,-0.40506 h -0.08101 v -0.081 l -0.16202,-0.081 -0.08101,-0.16202 -0.08101,-0.081 -0.16202,-0.24303 -0.16202,-0.081 -0.08101,-0.24303 -1.620202,-2.10626 h -0.16202 v -0.081 h -0.08101 l -0.08101,-0.24303 h -0.08101 v -0.24303 h -0.16202 v -0.081 h -0.16202 v -0.16202 l -0.24303,-0.16202 -0.08101,-0.32404 h -0.08101 l -0.08101,-0.24303 h -0.16202 l -0.40505,-0.64808 -0.243031,-0.32404 h -0.08101 l -0.16202,-0.32404 v -0.32404 l 1.539192,-0.081 c 2.025252,0 4.131515,0.081 6.237778,0.24303 1.944242,0.16202 4.050505,0.64808 5.994747,1.37717 1.944243,0.64808 3.807475,1.45818 5.751717,2.26828 0.324041,-0.081 0.729091,-0.24303 0.972122,-0.32404 0.32404,0 0.729091,-0.081 1.053131,-0.24303 0.32404,-0.081 0.567072,-0.16202 0.810102,-0.48606 0,-0.32404 0,-0.72909 0,-1.05313 0,-0.24303 0,-0.48606 -0.081,-0.8101 0,-0.32404 -0.16202,-0.56707 -0.324042,-0.89111 -0.40505,-0.72909 -1.053131,-1.37717 -1.701212,-1.78223 -0.729091,-0.40505 -1.458182,-0.89111 -2.025252,-1.37717 -0.729091,-0.56707 -1.296162,-1.05313 -2.025253,-1.53919 -0.24303,0 -0.40505,0 -0.48606,0 -0.243031,0 -0.486061,0 -0.648081,0.081 -0.24303,0 -0.405051,0 -0.648081,0.081 -0.972121,-0.081 -2.025253,-0.16202 -3.159394,-0.16202 -0.972121,-0.081 -2.025252,-0.24303 -3.159394,-0.32404 -0.972121,0 -2.106263,-0.081 -3.159394,-0.16202 -1.053131,0 -2.025252,0 -3.078384,0 -1.053131,0.081 -2.025252,0.16202 -3.078384,0.16202 -1.053131,0.081 -2.025252,0.24303 -2.997373,0.32404 -0.324041,0 -0.648081,-0.16202 -0.972122,-0.32404 -0.32404,-0.24303 -0.64808,-0.32404 -0.972121,-0.48606 -0.40505,-0.081 -0.810101,-0.16202 -1.215151,-0.24303 -0.08101,0 -0.324041,0 -0.567071,0 -0.24303,0.081 -0.486061,0.081 -0.729091,0.081 -0.16202,0.081 -0.32404,0.16202 -0.567071,0.24303 h -0.32404 l 0.486061,-1.05313 h 0.16202 v -0.16202 c 0.972121,-0.56707 1.944242,-0.97212 3.078384,-1.21515 1.296161,-0.16202 2.349293,-0.40505 3.483434,-0.64808 1.215152,-0.16202 2.349293,-0.32404 3.483434,-0.40505 l 2.025253,0.081 c 0.24303,0 0.32404,0 0.486061,-0.081 0.16202,-0.081 0.32404,-0.16202 0.40505,-0.24303 0.16202,-0.081 0.24303,-0.16202 0.486061,-0.24303 l 0.729091,-1.05314 c -0.08101,-0.32404 -0.162021,-0.56707 -0.324041,-0.89111 -0.08101,-0.32404 -0.32404,-0.64808 -0.48606,-0.89111 -0.243031,-0.16202 -0.486061,-0.40505 -0.729091,-0.72909 -0.324041,-0.48606 -0.972122,-0.72909 -1.620202,-0.89111 -0.567071,0 -1.215152,-0.081 -1.782223,-0.32404 -0.48606,-0.16202 -1.053131,-0.32404 -1.620202,-0.64808 -0.729091,0.24303 -1.458181,0.48606 -2.187272,0.8101 -0.729091,0.24303 -1.458182,0.48606 -2.268283,0.72909 -0.729091,0.16202 -1.539192,0.40505 -2.268283,0.64808 h -0.16202 c 0.24303,-0.48606 0.40505,-0.97212 0.56707,-1.37717 0,-0.48606 0.162021,-0.97212 0.243031,-1.37717 0,-0.48606 0.32404,-0.97212 0.648081,-1.29616 0.72909,-0.48606 1.458181,-0.89112 2.268282,-1.13415 0.810101,-0.16202 1.701213,-0.48606 2.430303,-0.64808 0.810101,-0.16202 1.620202,-0.40505 2.430303,-0.48606 l 0.729091,0.081 c 0.162021,0 0.324041,0 0.405051,-0.081 0.16202,0 0.32404,-0.081 0.32404,-0.16202 0.08101,-0.081 0.243031,-0.16202 0.324041,-0.24303 l 0.24303,-0.729088 h 0.08101 l 0.08101,-0.08101 0.891111,-0.567071 c -0.08101,-0.24303 -0.40505,-0.486061 -0.64808,-0.810101 -0.243031,-0.16202 -0.405051,-0.486061 -0.648081,-0.810101 -0.16202,-0.405051 -0.324041,-0.648081 -0.567071,-0.891111 -0.567071,-0.405051 -1.134141,-0.729091 -1.701212,-0.972121 -0.648081,-0.243031 -1.296162,-0.405051 -2.025253,-0.405051 -0.64808,0 -1.296161,-0.24303 -1.863232,-0.567071 -0.24303,0 -0.486061,0 -0.648081,0.08101 -0.16202,0.162021 -0.48606,0.243031 -0.648081,0.324041 -0.24303,0.16202 -0.56707,0.16202 -0.64808,0.32404 h -0.162021 l 0.324041,-2.511313 c 0.08101,-0.648081 0,-1.215151 -0.08101,-1.782222 0,-0.567071 -0.162021,-1.215152 -0.243031,-1.782222 -0.16202,-0.486061 -0.40505,-0.972122 -0.810101,-1.458182 l -0.48606,-0.324041 c -0.324041,-0.08101 -0.567071,-0.24303 -0.891111,-0.48606 -0.243031,-0.16202 -0.486061,-0.405051 -0.648081,-0.648081 -0.16202,-0.32404 -0.405051,-0.486061 -0.648081,-0.729091 -0.16202,-0.16202 -0.40505,-0.32404 -0.648081,-0.48606 -0.16202,-0.162021 -0.32404,-0.324041 -0.56707,-0.405051 -0.243031,-0.16202 -0.486061,-0.24303 -0.729091,-0.32404 -0.486061,0.08101 -0.891112,0.24303 -1.377172,0.32404 -0.486061,0.08101 -0.972121,0.08101 -1.458182,0.16202 -0.567071,0.08101 -0.891111,0.243031 -1.377172,0.405051 l -0.48606,0.648081 c 0,0.40505 0.16202,0.891111 0.32404,1.296161 0.24303,0.405051 0.486061,0.729091 0.648081,1.134142 0.16202,0.48606 0.40505,0.810101 0.810101,1.134141 l 1.377172,1.053131 0.64808,2.106263 c 0,0.648081 0,1.215151 -0.08101,1.944242 -0.08101,0.567071 -0.08101,1.215152 -0.16202,1.863233 -0.08101,0.56707 -0.08101,1.215151 -0.16202,1.782222 -0.810101,0.24303 -1.539192,0.567071 -2.349293,0.810101 -0.810101,0.32404 -1.620202,0.567071 -2.511313,0.729091 -0.729091,0.24303 -1.701212,0.40505 -2.511313,0.48606 l -4.050505,-0.24303 H 53.44154 l 0.16202,0.24303 0.486061,0.567068 0.405051,0.32404 h 0.16202 v 0.081 l 0.48606,0.32404 0.243031,0.16202 v 0.081 h 0.08101 v 0.16202 h 0.16202 v 0.16202 l 0.32404,0.081 v 0.16203 l 0.162021,0.16202 0.32404,0.081 v 0.16202 l 0.16202,0.081 c 0.486061,0.40505 1.134142,0.72909 1.701212,0.97212 0.648081,0.32404 1.296162,0.56707 1.944243,0.72909 0.729091,0.24303 1.377172,0.40505 2.106262,0.40505 l 1.539192,-0.24303 h 0.162021 l 0.24303,0.24303 c 0,0.48606 0,0.89111 0,1.21515 -0.08101,0.48606 -0.16202,0.89111 -0.24303,1.29616 0,0.32404 -0.162021,0.64808 -0.243031,1.05313 -0.972121,0.40505 -2.025252,0.64808 -2.997374,0.89111 -1.053131,0.32404 -2.187272,0.56707 -3.159393,0.72909 -1.053132,0.24304 -2.187273,0.40506 -3.159394,0.7291 v 0.081 l 0.40505,0.16202 c 0.16202,0.081 0.324041,0.16202 0.324041,0.16202 0,0.081 0.16202,0.24303 0.24303,0.32404 0,0.16202 0.08101,0.32404 0.16202,0.32404 0.567071,0.40505 1.134141,0.89111 1.782222,1.21515 0.648081,0.40505 1.215152,0.64808 1.863233,0.8101 0.64808,0.24303 1.377171,0.48606 2.106262,0.48606 h 0.567071 l 0.08101,0.16202 c 0,0.32404 0,0.56707 0,0.8101 0,0.32404 -0.08101,0.64808 -0.16202,0.89111 -0.08101,0.40505 -0.24303,0.56707 -0.324041,0.89111 -1.539192,0.72909 -3.159394,1.29617 -4.779596,1.78223 -1.620202,0.48606 -3.240404,1.05313 -4.941616,1.6202 -1.701212,0.56707 -3.321414,1.05313 -5.022626,1.37717 -0.648081,0 -1.215152,0 -1.782222,0 -0.567071,0 -1.215152,0 -1.863233,0 -0.56707,0 -1.134141,-0.081 -1.620202,-0.32404 h -0.16202 v 0.081 c 0.24303,0.24303 0.405051,0.56707 0.567071,0.89111 0.16202,0.24303 0.32404,0.48606 0.32404,0.8101 0.08101,0.32404 0.324041,0.64808 0.567071,0.89111 0.486061,0.40505 1.053131,0.8101 1.620202,1.13414 0.648081,0.40505 1.296162,0.64808 1.863232,0.97213 0.648081,0.32404 1.296162,0.48606 2.025253,0.56707 1.215151,0 2.430303,-0.16202 3.726465,-0.32404 1.134141,-0.24303 2.187272,-0.64809 3.240404,-1.21516 1.134141,-0.56707 2.106262,-1.05313 2.997373,-1.78222 h 0.324041 c -0.405051,1.53919 -1.134142,2.99738 -1.863233,4.37455 -0.891111,1.45818 -1.620202,2.75434 -2.511313,4.13151 -0.729091,1.45818 -1.620202,2.83536 -2.511313,4.13152 h -0.08101 l -0.24303,0.48606 h -0.16202 l -0.486061,0.48606 -1.620202,2.10626 h -0.08101 l -0.405051,0.40505 -0.24303,0.24303 -1.134141,1.29616 h -0.08101 l -0.24303,0.24303 -0.32404,0.24303 v 0.16202 h -0.08101 l -0.486061,0.40506 -0.08101,0.16202 -0.32404,0.32404 v 0.081 h -0.162021 l -0.48606,0.48606 -0.324041,0.32404 v 0.081 l -0.32404,0.24303 -0.567071,0.40505 -0.32404,0.24303 -0.567071,0.48606 v 0.16202 l -0.40505,0.24303 -0.324041,0.24303 v 0.081 l -1.134141,0.48606 -0.243031,0.8101 0.08101,0.24303 c 0.72909,-0.24303 1.539192,-0.56707 2.268282,-0.89111 0.729091,-0.32404 1.458182,-0.64808 2.268283,-0.89111 0.648081,-0.40505 1.458182,-0.89111 2.106263,-1.29616 v -0.081 l 0.648081,-0.32404 v -0.16202 l 2.592323,-1.62021 v -0.081 l 0.32404,-0.16202 0.08101,-0.32404 c 0.162021,-0.081 0.243031,-0.081 0.486061,-0.081 0.08101,0 0.24303,-0.081 0.405051,-0.16202 0,-0.081 0.08101,-0.081 0.24303,-0.16202 v -0.081 c 0.24303,-0.24303 0.48606,-0.48606 0.729091,-0.56707 0.24303,-0.16202 0.56707,-0.32404 0.729091,-0.40505 0.24303,-0.081 0.48606,-0.24303 0.729091,-0.40505 l -0.324041,0.081 -0.32404,-0.081 0.08101,-0.40505 2.106263,-1.29616 v -0.16202 l -0.324041,0.081 h -0.24303 v -0.24303 l 0.648081,-0.32404 0.64808,-0.72909 h 0.243031 c 0.32404,1.53919 0.56707,3.15939 0.729091,4.77959 0,1.62021 0.16202,3.24041 0.32404,4.86061 0.16202,1.70121 0.567071,3.15939 1.377172,4.53657 h 0.16202 l 0.08101,0.24303 c 0.16202,0 0.16202,0 0.24303,-0.081 0.08101,0 0.243031,0 0.324041,-0.081 0.08101,-0.081 0.24303,-0.081 0.32404,-0.081 l 0.729091,0.32404 0.810101,-0.24303 c 0.324041,0 0.567071,0.081 0.810101,0.24303 0.16202,0.16202 0.405051,0.32404 0.729091,0.32404 0.24303,0.16202 0.486061,0.24303 0.810101,0.32404 0.891111,-0.081 1.701212,-0.16202 2.754344,-0.32404 0.891111,-0.081 1.782222,-0.16202 2.673333,-0.24303 0.891111,0 1.782222,-0.081 2.592323,-0.24303 l 1.053131,0.081 c 0.162021,0.40505 0.243031,0.8101 0.486061,1.13414 0.08101,0.48606 0.32404,0.89111 0.486061,1.21515 0.24303,0.40505 0.40505,0.8101 0.56707,1.21515 0.162021,0 0.243031,0.081 0.405051,0.16202 0.16202,0.16202 0.24303,0.24303 0.48606,0.24303 0.162021,0 0.324041,0 0.486061,0.081 z m -7.047879,-39.45192 -1.134141,0.40505 c -0.08101,0 -0.16202,0 -0.24303,0 -0.08101,0 -0.243031,0 -0.243031,0 -0.16202,0 -0.24303,-0.081 -0.24303,-0.16202 0,-0.16202 0.08101,-0.32404 0.16202,-0.48606 0.08101,-0.16202 0.16202,-0.32404 0.24303,-0.40505 0.08101,-0.24303 0.08101,-0.32404 0.08101,-0.56707 h 0.24303 c 0.16202,0.081 0.24303,0.24303 0.48606,0.24303 0.08101,0.081 0.243031,0.24303 0.324041,0.32404 0,0.16202 0.16202,0.24303 0.24303,0.40505 l 0.324041,0.081 v 0.081 z"
         style="font-style:normal;font-variant:normal;font-weight:normal;font-stretch:normal;font-family:nagayama_kai;-inkscape-font-specification:nagayama_kai;stroke:#000000;stroke-width:1.5;stroke-miterlimit:4;stroke-dasharray:none;stroke-opacity:1"
         id="path18" />
    </g>
  </g>
</svg>
